<svg xmlns="http://www.w3.org/2000/svg" style="display:none;">
    <symbol id="treeArrow" viewBox="0 0 8 6" fill="none">
        <path d="M0.5 5L4 1.5L7.5 5" stroke="#566276" stroke-opacity="0.64" />
    </symbol>
    <symbol id="treeLock" width="16" height="16" viewBox="0 0 16 16" fill="none">
        <path fill-rule="evenodd" clip-rule="evenodd" d="M8 3C6.88706 3 6 3.89417 6 5V7H10V5C10 3.88706 9.10583 3 8 3ZM5 5V7H3.5H3V7.5V13.5V14H3.5H12.5H13V13.5V7.5V7H12.5H11V5C11 3.33227 9.6556 2 8 2C6.33227 2 5 3.3444 5 5ZM4 8H5H5.5H10.5H11H12V13H4V8ZM9 11V10H7V11H9Z" fill="rgb(86, 98, 118)" fill-opacity="0.64"/>
    </symbol>
    <symbol id="treeRename" width="16" height="16" viewBox="0 0 16 16" fill="none">
        <path fill-rule="evenodd" clip-rule="evenodd" d="M11.8536 1.14646L11.5 0.792908L11.1464 1.14646L1.14645 11.1465L1 11.2929V11.5V13.5V14H1.5H3.5H3.70711L3.85355 13.8536L13.8536 3.85357L14.2071 3.50001L13.8536 3.14646L11.8536 1.14646ZM2 13V11.7071L9.00003 4.70709L10.2929 5.99998L3.29289 13H2ZM11 5.29288L12.7929 3.50001L11.5 2.20712L9.70714 3.99998L11 5.29288Z" fill="rgb(86, 98, 118)" fill-opacity="0.64"/>
    </symbol>
    <symbol id="treeVisible" width="16" height="16" viewBox="0 0 16 16" fill="none">
        <path fill-rule="evenodd" fill-opacity="cal(1 - var(--opacity))" clip-rule="evenodd" d="M7.49983 12C4.60846 12 2.15685 10.1118 1.31322 7.5001C2.15679 4.88834 4.60845 3 7.49989 3C10.3913 3 12.8429 4.88824 13.6865 7.4999C12.8429 10.1117 10.3913 12 7.49983 12ZM7.49989 2C4.10159 2 1.23239 4.25976 0.310511 7.35749L0.268066 7.50011L0.310516 7.64274C1.23246 10.7404 4.10161 13 7.49983 13C10.8981 13 13.7673 10.7402 14.6892 7.64251L14.7317 7.49989L14.6892 7.35726C13.7673 4.25965 10.8981 2 7.49989 2ZM7.49977 4.5C5.84292 4.5 4.49977 5.84315 4.49977 7.5C4.49977 9.15685 5.84292 10.5 7.49977 10.5C9.15663 10.5 10.4998 9.15685 10.4998 7.5C10.4998 5.84315 9.15663 4.5 7.49977 4.5ZM5.49977 7.5C5.49977 6.39543 6.3952 5.5 7.49977 5.5C8.60434 5.5 9.49977 6.39543 9.49977 7.5C9.49977 8.60457 8.60434 9.5 7.49977 9.5C6.3952 9.5 5.49977 8.60457 5.49977 7.5Z" fill="rgb(86, 98, 118)" />
        <path fill-rule="evenodd" fill-opacity="var(--opacity)" clip-rule="evenodd" d="M11.2749 11.982L12.6464 13.3535L13.3536 12.6464L2.35355 1.64642L1.64645 2.35353L2.88243 3.58952C1.67194 4.53661 0.759877 5.84749 0.310511 7.35747L0.268066 7.50009L0.310516 7.64272C1.23246 10.7403 4.10161 13 7.49983 13C8.87645 13 10.1662 12.6292 11.2749 11.982ZM10.5397 11.2468L9.23817 9.94526C8.74774 10.2945 8.14775 10.5 7.49977 10.5C5.84292 10.5 4.49977 9.15683 4.49977 7.49998C4.49977 6.852 4.7052 6.25201 5.05449 5.76158L3.59561 4.30269C2.53695 5.09917 1.72939 6.21159 1.31322 7.50008C2.15685 10.1117 4.60846 12 7.49983 12C8.59787 12 9.6325 11.7276 10.5397 11.2468ZM5.77677 6.48385C5.60077 6.78164 5.49977 7.12901 5.49977 7.49998C5.49977 8.60455 6.3952 9.49998 7.49977 9.49998C7.87074 9.49998 8.21811 9.39898 8.5159 9.22298L5.77677 6.48385ZM5.19055 2.36222L6.00181 3.17347C6.48277 3.06001 6.98434 2.99998 7.49989 2.99998C10.3913 2.99998 12.8429 4.88822 13.6865 7.49988C13.428 8.30014 13.0186 9.03249 12.4917 9.66341L13.2012 10.3729C13.8737 9.58668 14.3865 8.65977 14.6892 7.64249L14.7317 7.49986L14.6892 7.35724C13.7673 4.25963 10.8981 1.99998 7.49989 1.99998C6.69406 1.99998 5.91798 2.12704 5.19055 2.36222ZM7.49977 4.49998C7.44377 4.49998 7.38812 4.50151 7.33288 4.50454L10.4952 7.66687C10.4982 7.61162 10.4998 7.55598 10.4998 7.49998C10.4998 5.84312 9.15663 4.49998 7.49977 4.49998Z" fill="rgb(86, 98, 118)" />
    </symbol>
    <symbol id="treegroup2" width="16" height="16" viewBox="0 0 16 16" fill="none">
        <path d="M1.5 1.5H13.5V13.5H1.5V1.5Z" stroke="rgb(86,98,118)" stroke-opacity="0.64" stroke-dasharray="2 2"/>
    </symbol>
    <symbol id="tree-icon-group" width="16" height="16" viewBox="0 0 16 16" fill="none" xmlns="http://www.w3.org/2000/svg">
        <path d="M1.5 13.5H13.5V3.5H8L6 1.5H1.5V13.5Z" />
    </symbol>
    <symbol id="tree-icon-groupopen" width="16" height="16" viewBox="0 0 16 16" fill="none" xmlns="http://www.w3.org/2000/svg">
        <path fill-rule="evenodd" clip-rule="evenodd" d="M1.5 1H1V1.5V13.5V14H1.5H13.5H13.9042L13.9889 13.6048L15.4889 6.60476L15.6185 6H15H14V3.5V3H13.5H8.20711L6.35355 1.14645L6.20711 1H6H1.5ZM13 6V4H8H7.79289L7.64645 3.85355L5.79289 2H2V8.78036L2.5111 6.39524L2.59579 6H3H13ZM2.11849 13H13.0958L14.3815 7H3.40421L2.11849 13Z" fill="var(--treeGroupopenFill)"/>
    </symbol>
    <symbol id="tree-icon-column" width="16" height="16" viewBox="0 0 16 16" fill="none" xmlns="http://www.w3.org/2000/svg">
        <path fill-rule="evenodd" clip-rule="evenodd" d="M7 2V11H8V2H7ZM4 4V11H5V4H4ZM13 5V11H14V5H13ZM1 6V11H2V6H1ZM10 6V11H11V6H10ZM0 13H15V12H0V13Z" fill="var(--treeLayerFill)" />
    </symbol>
    <symbol id="tree-icon-marker" width="16" height="16" viewBox="0 0 16 16" fill="none">
        <path d="M1.5 1.5H13.5V13.5H1.5V1.5Z" stroke="rgb(86,98,118)" stroke-opacity="0.64" stroke-dasharray="2 2"/>
    </symbol>

    <!-- tree toolbar icon -->
    <symbol id="treeToolbarUp" width="16" height="16" viewBox="0 0 16 16" fill="none" xmlns="http://www.w3.org/2000/svg">
        <path opacity="0.2" fill-rule="evenodd" clip-rule="evenodd" d="M9.125 11.375H13.625V13.625H2.375V11.375H6.875V6.125H5L8 2.75L11 6.125H9.125V11.375Z" fill="var(--treeToolbarFill)"/>
        <path fill-rule="evenodd" clip-rule="evenodd" d="M8.3737 2.41773L8 1.99731L7.6263 2.41773L4.6263 5.79273L3.88658 6.62491H5H6V6.99991H2.5H2V7.49991V9.49991V9.99991H2.5H6V10.9999H2.5H2V11.4999V13.4999V13.9999H2.5H13.5H14V13.4999V11.4999V10.9999H13.5H10V9.99991H13.5H14V9.49991V7.49991V6.99991H13.5H10V6.62491H11H12.1134L11.3737 5.79273L8.3737 2.41773ZM10 7.99991V8.99991H13V7.99991H10ZM9 6.99991V6.12491V5.62491H9.5H9.88658L8 3.50251L6.11342 5.62491H6.5H7V6.12491V6.99991V7.49991V9.49991V9.99991V11.4999V11.9999H6.5H3V12.9999H13V11.9999H9.5H9V11.4999V9.99991V9.49991V7.49991V6.99991ZM6 8.99991V7.99991H3V8.99991H6Z" fill="var(--treeToolbarFill)"/>
    </symbol>
    <symbol id="treeToolbarDown" width="16" height="16" viewBox="0 0 16 16" fill="none" xmlns="http://www.w3.org/2000/svg">
        <path opacity="0.2" fill-rule="evenodd" clip-rule="evenodd" d="M13.625 4.625H9.125V6.125H6.875V4.625H2.375V2.375H13.625V4.625ZM6.875 8.375V9.875H5L8 13.25L11 9.875H9.125V8.375H6.875Z" fill="var(--treeToolbarFill)"/>
        <path fill-rule="evenodd" clip-rule="evenodd" d="M7.99429 13.9962L8.36858 13.5879L11.4623 10.2129L12.2304 9.375H11.0938H10V9H13.5H14V8.5V6.5V6H13.5H10V5H13.5H14V4.5V2.5V2H13.5H2.5H2V2.5V4.5V5H2.5H6V6H2.5H2V6.5V8.5V9H2.5H6V9.375H5H3.88658L4.6263 10.2072L7.6263 13.5822L7.99429 13.9962ZM7 9V9.875V10.375H6.5H6.11342L8.00571 12.5038L9.95713 10.375H9.5H9V9.875V9H7ZM7 6H9V4.5V4H9.5H13V3H3V4H6.5H7V4.5V6ZM3 7V8H13V7H3Z" fill="var(--treeToolbarFill)"/>
    </symbol>
    <symbol id="treeToolbarFirst" width="16" height="16" viewBox="0 0 16 16" fill="none" xmlns="http://www.w3.org/2000/svg">
        <path opacity="0.2" fill-rule="evenodd" clip-rule="evenodd" d="M9.125 11.375H13.625V13.625H2.375V11.375H6.875V6.125H5L8 2.75L11 6.125H9.125V11.375Z" fill="var(--treeToolbarFill)"/>
        <path fill-rule="evenodd" clip-rule="evenodd" d="M8 1.99731L8.3737 2.41773L11.3737 5.79273L12.1134 6.62491H11H10V10.9999H13.5H14V11.4999V13.4999V13.9999H13.5H2.5H2V13.4999V11.4999V10.9999H2.5H6V6.62491H5H3.88658L4.6263 5.79273L7.6263 2.41773L8 1.99731ZM6.11342 5.62491H6.5H7V6.12491V11.4999V11.9999H6.5H3V12.9999H13V11.9999H9.5H9V11.4999V6.12491V5.62491H9.5H9.88658L8 3.50251L6.11342 5.62491Z" fill="var(--treeToolbarFill)"/>
    </symbol>
    <symbol id="treeToolbarLast" width="16" height="16" viewBox="0 0 16 16" fill="none" xmlns="http://www.w3.org/2000/svg">
        <path opacity="0.2" fill-rule="evenodd" clip-rule="evenodd" d="M9.125 4.625H13.625V2.375H2.375V4.625H6.875V9.875H5L8 13.25L11 9.875H9.125V4.625Z" fill="var(--treeToolbarFill)"/>
        <path fill-rule="evenodd" clip-rule="evenodd" d="M8 14.0026L8.3737 13.5822L11.3737 10.2072L12.1134 9.37501H11H10V5.00004L13.5 5.00001L14 5V4.50001V2.50001V2L13.5 2.00001L2.49999 2.00013L2 2.00013V2.50013V4.50013V5.00013L2.50001 5.00013L6 5.00009V9.37501H5H3.88658L4.6263 10.2072L7.6263 13.5822L8 14.0026ZM6.11342 10.375H6.5H7V9.87501V4.50008V4.00008L6.49999 4.00008L3 4.00012V3.00012L13 3.00001V4.00001L9.49999 4.00005L9 4.00006V4.50005V9.87501V10.375H9.5H9.88658L8 12.4974L6.11342 10.375Z" fill="var(--treeToolbarFill)"/>
    </symbol>
    <symbol id="tabPrev" width="12" height="12" viewBox="0 0 12 12" fill="none" xmlns="http://www.w3.org/2000/svg">
        <path fill-rule="evenodd" clip-rule="evenodd" d="M6.14641 5.64648L8.64641 3.14648L9.35352 3.85359L7.20707 6.00004L9.35352 8.14648L8.64641 8.85359L6.14641 6.35359L5.79286 6.00004L6.14641 5.64648ZM2.14641 5.64648L4.64641 3.14648L5.35352 3.85359L3.20707 6.00004L5.35352 8.14648L4.64641 8.85359L2.14641 6.35359L1.79286 6.00004L2.14641 5.64648Z" fill="white"/>
    </symbol>
    <symbol id="tabNext" width="9" height="6" viewBox="0 0 9 6" fill="none" xmlns="http://www.w3.org/2000/svg">
        <path fill-rule="evenodd" clip-rule="evenodd" d="M3.85359 2.64648L1.35359 0.146484L0.646484 0.853591L2.79293 3.00004L0.646484 5.14648L1.35359 5.85359L3.85359 3.35359L4.20714 3.00004L3.85359 2.64648ZM7.85359 2.64648L5.35359 0.146484L4.64648 0.853591L6.79293 3.00004L4.64648 5.14648L5.35359 5.85359L7.85359 3.35359L8.20714 3.00004L7.85359 2.64648Z" fill="white"/>
    </symbol>


</svg>